<svg xmlns="http://www.w3.org/2000/svg" xmlns:xlink="http://www.w3.org/1999/xlink" width="500" zoomAndPan="magnify" viewBox="0 0 375 374.999991" height="500" preserveAspectRatio="xMidYMid meet" version="1.0"><defs><g/><clipPath id="0490770d6b"><rect x="0" width="243" y="0" height="39"/></clipPath><clipPath id="1cb06aaae6"><path d="M 156.367188 174.449219 L 225.757812 174.449219 L 225.757812 212.382812 L 156.367188 212.382812 Z M 156.367188 174.449219 " clip-rule="nonzero"/></clipPath><clipPath id="53c19ddc0b"><path d="M 0.367188 0.449219 L 69.757812 0.449219 L 69.757812 38.382812 L 0.367188 38.382812 Z M 0.367188 0.449219 " clip-rule="nonzero"/></clipPath><clipPath id="12ec216bf8"><rect x="0" width="70" y="0" height="39"/></clipPath><clipPath id="14b8cd28b5"><path d="M 156.367188 131.148438 L 224.230469 131.148438 L 224.230469 169.085938 L 156.367188 169.085938 Z M 156.367188 131.148438 " clip-rule="nonzero"/></clipPath><clipPath id="19b60a52c9"><path d="M 0.367188 0.148438 L 68.230469 0.148438 L 68.230469 38.085938 L 0.367188 38.085938 Z M 0.367188 0.148438 " clip-rule="nonzero"/></clipPath><clipPath id="0958e9aa5c"><rect x="0" width="69" y="0" height="39"/></clipPath><clipPath id="6a5434357a"><path d="M 156.367188 159.167969 L 225.757812 159.167969 L 225.757812 197.101562 L 156.367188 197.101562 Z M 156.367188 159.167969 " clip-rule="nonzero"/></clipPath><clipPath id="73b2be2d5d"><path d="M 0.367188 0.167969 L 69.757812 0.167969 L 69.757812 38.101562 L 0.367188 38.101562 Z M 0.367188 0.167969 " clip-rule="nonzero"/></clipPath><clipPath id="551d42cdf3"><rect x="0" width="70" y="0" height="39"/></clipPath><clipPath id="b054093e9e"><path d="M 86.304688 26.152344 L 294.054688 26.152344 L 294.054688 292.402344 L 86.304688 292.402344 Z M 86.304688 26.152344 " clip-rule="nonzero"/></clipPath></defs><rect x="-37.5" width="450" fill="#ffffff" y="-37.499999" height="449.999989" fill-opacity="1"/><g transform="matrix(1, 0, 0, 1, 73, 304)"><g clip-path="url(#0490770d6b)"><g fill="#000616" fill-opacity="1"><g transform="translate(1.953932, 30.653209)"><g><path d="M 2.90625 -21.640625 L 6.921875 -21.640625 L 6.921875 -3.40625 L 18.25 -3.40625 L 18.25 0 L 2.90625 0 Z M 2.90625 -21.640625 "/></g></g></g><g fill="#000616" fill-opacity="1"><g transform="translate(28.015082, 30.653209)"><g><path d="M 12.21875 0.3125 C 9.226562 0.3125 6.894531 -0.523438 5.21875 -2.203125 C 3.550781 -3.890625 2.71875 -6.300781 2.71875 -9.4375 L 2.71875 -21.640625 L 6.734375 -21.640625 L 6.734375 -9.578125 C 6.734375 -5.335938 8.570312 -3.21875 12.25 -3.21875 C 15.894531 -3.21875 17.71875 -5.335938 17.71875 -9.578125 L 17.71875 -21.640625 L 21.671875 -21.640625 L 21.671875 -9.4375 C 21.671875 -6.300781 20.84375 -3.890625 19.1875 -2.203125 C 17.53125 -0.523438 15.207031 0.3125 12.21875 0.3125 Z M 12.21875 0.3125 "/></g></g></g><g fill="#000616" fill-opacity="1"><g transform="translate(59.948902, 30.653209)"><g><path d="M 22.796875 0 L 22.765625 -14.34375 L 15.640625 -2.46875 L 13.859375 -2.46875 L 6.734375 -14.15625 L 6.734375 0 L 2.90625 0 L 2.90625 -21.640625 L 6.21875 -21.640625 L 14.8125 -7.296875 L 23.25 -21.640625 L 26.5625 -21.640625 L 26.59375 0 Z M 22.796875 0 "/></g></g></g><g fill="#000616" fill-opacity="1"><g transform="translate(97.013583, 30.653209)"><g><path d="M 19.140625 -3.375 L 19.140625 0 L 2.90625 0 L 2.90625 -21.640625 L 18.703125 -21.640625 L 18.703125 -18.28125 L 6.921875 -18.28125 L 6.921875 -12.640625 L 17.375 -12.640625 L 17.375 -9.34375 L 6.921875 -9.34375 L 6.921875 -3.375 Z M 19.140625 -3.375 "/></g></g></g><g fill="#000616" fill-opacity="1"><g transform="translate(125.26925, 30.653209)"><g><path d="M 1.703125 -10.203125 L 10.203125 -10.203125 L 10.203125 -6.984375 L 1.703125 -6.984375 Z M 1.703125 -10.203125 "/></g></g></g><g fill="#000616" fill-opacity="1"><g transform="translate(144.715923, 30.653209)"><g><path d="M 2.90625 -21.640625 L 12.375 -21.640625 C 14.675781 -21.640625 16.722656 -21.191406 18.515625 -20.296875 C 20.316406 -19.398438 21.710938 -18.128906 22.703125 -16.484375 C 23.691406 -14.847656 24.1875 -12.960938 24.1875 -10.828125 C 24.1875 -8.679688 23.691406 -6.785156 22.703125 -5.140625 C 21.710938 -3.503906 20.316406 -2.238281 18.515625 -1.34375 C 16.722656 -0.445312 14.675781 0 12.375 0 L 2.90625 0 Z M 12.1875 -3.40625 C 13.769531 -3.40625 15.164062 -3.707031 16.375 -4.3125 C 17.582031 -4.914062 18.507812 -5.78125 19.15625 -6.90625 C 19.800781 -8.03125 20.125 -9.335938 20.125 -10.828125 C 20.125 -12.304688 19.800781 -13.609375 19.15625 -14.734375 C 18.507812 -15.859375 17.582031 -16.722656 16.375 -17.328125 C 15.164062 -17.941406 13.769531 -18.25 12.1875 -18.25 L 6.921875 -18.25 L 6.921875 -3.40625 Z M 12.1875 -3.40625 "/></g></g></g><g fill="#000616" fill-opacity="1"><g transform="translate(177.793373, 30.653209)"><g><path d="M 18.25 -11.25 C 19.4375 -10.863281 20.378906 -10.210938 21.078125 -9.296875 C 21.785156 -8.378906 22.140625 -7.238281 22.140625 -5.875 C 22.140625 -4 21.414062 -2.550781 19.96875 -1.53125 C 18.53125 -0.507812 16.429688 0 13.671875 0 L 2.90625 0 L 2.90625 -21.640625 L 13.046875 -21.640625 C 15.609375 -21.640625 17.578125 -21.140625 18.953125 -20.140625 C 20.335938 -19.140625 21.03125 -17.765625 21.03125 -16.015625 C 21.03125 -14.941406 20.78125 -13.992188 20.28125 -13.171875 C 19.789062 -12.347656 19.113281 -11.707031 18.25 -11.25 Z M 6.921875 -18.484375 L 6.921875 -12.515625 L 12.609375 -12.515625 C 14.015625 -12.515625 15.09375 -12.765625 15.84375 -13.265625 C 16.59375 -13.773438 16.96875 -14.515625 16.96875 -15.484375 C 16.96875 -16.472656 16.59375 -17.21875 15.84375 -17.71875 C 15.09375 -18.226562 14.015625 -18.484375 12.609375 -18.484375 Z M 13.421875 -3.15625 C 16.535156 -3.15625 18.09375 -4.195312 18.09375 -6.28125 C 18.09375 -8.363281 16.535156 -9.40625 13.421875 -9.40625 L 6.921875 -9.40625 L 6.921875 -3.15625 Z M 13.421875 -3.15625 "/></g></g></g><g fill="#000616" fill-opacity="1"><g transform="translate(208.861753, 30.653209)"><g><path d="M 22.140625 -21.640625 L 22.140625 0 L 18.828125 0 L 6.890625 -14.65625 L 6.890625 0 L 2.90625 0 L 2.90625 -21.640625 L 6.21875 -21.640625 L 18.15625 -6.984375 L 18.15625 -21.640625 Z M 22.140625 -21.640625 "/></g></g></g></g></g><path stroke-linecap="butt" transform="matrix(0.64216, -0.387467, 0.387467, 0.64216, 103.445887, 221.0556)" fill="none" stroke-linejoin="miter" d="M 26.251187 3.501744 L 237.905234 3.497427 " stroke="#ffbd59" stroke-width="7" stroke-opacity="1" stroke-miterlimit="4"/><path stroke-linecap="round" transform="matrix(0.64216, -0.387467, 0.387467, 0.64216, 103.445887, 221.0556)" fill="none" stroke-linejoin="round" d="M 3.50255 3.498871 C 3.498188 -2.300847 8.201068 -7.00004 13.998095 -6.999942 C 19.799582 -6.997154 24.501466 -2.298733 24.501368 3.498294 C 24.49858 9.299781 19.80016 14.001665 13.998673 13.998877 C 8.201645 13.998779 3.499761 9.300358 3.50255 3.498871 " stroke="#ffbd59" stroke-width="7" stroke-opacity="1" stroke-miterlimit="4"/><path stroke-linecap="round" transform="matrix(0.64216, -0.387467, 0.387467, 0.64216, 103.445887, 221.0556)" fill="none" stroke-linejoin="round" d="M 260.653871 3.500299 C 260.653774 9.297327 255.955353 13.999211 250.158326 13.999113 C 244.354148 14.000784 239.654955 9.297904 239.655053 3.500877 C 239.65515 -2.296151 244.356262 -7.002494 250.157748 -6.999706 C 255.954776 -6.999608 260.653969 -2.296728 260.653871 3.500299 " stroke="#ffbd59" stroke-width="7" stroke-opacity="1" stroke-miterlimit="4"/><path stroke-linecap="butt" transform="matrix(0.645037, 0.382659, -0.382659, 0.645037, 107.260471, 121.083179)" fill="none" stroke-linejoin="miter" d="M 26.248682 3.50252 L 234.991888 3.498801 " stroke="#ffbd59" stroke-width="7" stroke-opacity="1" stroke-miterlimit="4"/><path stroke-linecap="round" transform="matrix(0.645037, 0.382659, -0.382659, 0.645037, 107.260471, 121.083179)" fill="none" stroke-linejoin="round" d="M 3.500735 3.498904 C 3.501961 -2.297278 8.203282 -6.99992 13.999465 -6.998695 C 19.800127 -7.000127 24.502769 -2.298806 24.497064 3.500034 C 24.498496 9.300697 19.801654 14.000681 14.000992 14.002113 C 8.197673 13.999066 3.502167 9.299566 3.500735 3.498904 " stroke="#ffbd59" stroke-width="7" stroke-opacity="1" stroke-miterlimit="4"/><path stroke-linecap="round" transform="matrix(0.645037, 0.382659, -0.382659, 0.645037, 107.260471, 121.083179)" fill="none" stroke-linejoin="round" d="M 257.744314 3.49976 C 257.743089 9.295942 253.041767 13.998584 247.241105 14.000016 C 241.444922 13.998791 236.74228 9.29747 236.743506 3.501287 C 236.742074 -2.299375 241.443395 -7.002017 247.239578 -7.000792 C 253.042897 -6.997744 257.742882 -2.300903 257.744314 3.49976 " stroke="#ffbd59" stroke-width="7" stroke-opacity="1" stroke-miterlimit="4"/><path stroke-linecap="butt" transform="matrix(0.75, 0.000000000000000188, -0.000000000000000188, 0.75, 104.802816, 169.094096)" fill="none" stroke-linejoin="miter" d="M 26.252497 3.499539 L 199.924383 3.499539 " stroke="#ffbd59" stroke-width="7" stroke-opacity="1" stroke-miterlimit="4"/><path stroke-linecap="round" transform="matrix(0.75, 0.000000000000000188, -0.000000000000000188, 0.75, 104.802816, 169.094096)" fill="none" stroke-linejoin="round" d="M 3.502496 3.499539 C 3.502496 -2.297337 8.200413 -7.000462 14.002496 -7.000462 C 19.799372 -7.000462 24.502497 -2.297337 24.502497 3.499539 C 24.502497 9.296414 19.799372 13.999539 14.002496 13.999539 C 8.200413 13.999539 3.502496 9.296414 3.502496 3.499539 " stroke="#ffbd59" stroke-width="7" stroke-opacity="1" stroke-miterlimit="4"/><path stroke-linecap="round" transform="matrix(0.75, 0.000000000000000188, -0.000000000000000188, 0.75, 104.802816, 169.094096)" fill="none" stroke-linejoin="round" d="M 222.674385 3.499539 C 222.674385 9.296414 217.97126 13.999539 212.174384 13.999539 C 206.372301 13.999539 201.674384 9.296414 201.674384 3.499539 C 201.674384 -2.297337 206.372301 -7.000462 212.174384 -7.000462 C 217.97126 -7.000462 222.674385 -2.297337 222.674385 3.499539 " stroke="#ffbd59" stroke-width="7" stroke-opacity="1" stroke-miterlimit="4"/><g clip-path="url(#1cb06aaae6)"><g transform="matrix(1, 0, 0, 1, 156, 174)"><g clip-path="url(#12ec216bf8)"><g clip-path="url(#53c19ddc0b)"><path fill="#ffffff" d="M 0.367188 0.449219 L 69.71875 0.449219 L 69.71875 38.382812 L 0.367188 38.382812 Z M 0.367188 0.449219 " fill-opacity="1" fill-rule="nonzero"/></g></g></g></g><g clip-path="url(#14b8cd28b5)"><g transform="matrix(1, 0, 0, 1, 156, 131)"><g clip-path="url(#0958e9aa5c)"><g clip-path="url(#19b60a52c9)"><path fill="#ffffff" d="M 0.367188 0.148438 L 68.234375 0.148438 L 68.234375 38.085938 L 0.367188 38.085938 Z M 0.367188 0.148438 " fill-opacity="1" fill-rule="nonzero"/></g></g></g></g><g clip-path="url(#6a5434357a)"><g transform="matrix(1, 0, 0, 1, 156, 159)"><g clip-path="url(#551d42cdf3)"><g clip-path="url(#73b2be2d5d)"><path fill="#ffffff" d="M 0.367188 0.167969 L 69.71875 0.167969 L 69.71875 38.101562 L 0.367188 38.101562 Z M 0.367188 0.167969 " fill-opacity="1" fill-rule="nonzero"/></g></g></g></g><g clip-path="url(#b054093e9e)"><path fill="#000616" d="M 161.128906 127.554688 L 219.253906 127.554688 L 226.027344 116.582031 L 154.355469 116.582031 Z M 132.238281 288.699219 L 248.144531 288.699219 L 248.144531 292.449219 L 132.238281 292.449219 Z M 86.496094 277.441406 L 294.265625 277.441406 L 294.078125 281.191406 L 86.304688 281.191406 Z M 190.257812 142.90625 C 192.171875 142.90625 193.917969 143.6875 195.179688 144.953125 C 196.441406 146.210938 197.226562 147.957031 197.226562 149.875 L 197.226562 165.664062 L 183.289062 165.664062 L 183.289062 149.875 C 183.289062 147.960938 184.070312 146.21875 185.332031 144.957031 L 185.339844 144.953125 C 186.601562 143.6875 188.34375 142.90625 190.257812 142.90625 Z M 190.257812 146.65625 C 189.371094 146.65625 188.566406 147.019531 187.980469 147.601562 C 187.398438 148.183594 187.039062 148.988281 187.039062 149.875 L 187.039062 161.910156 L 193.472656 161.910156 L 193.472656 149.875 C 193.472656 148.992188 193.109375 148.1875 192.527344 147.605469 C 191.945312 147.019531 191.136719 146.65625 190.257812 146.65625 Z M 118.246094 266.574219 L 146.144531 266.574219 L 158.464844 130.351562 L 149.410156 115.6875 L 147.648438 112.828125 L 152.726562 112.828125 L 152.726562 98.71875 L 160.785156 98.71875 L 160.785156 84.179688 L 164.09375 84.179688 L 164.09375 57.285156 L 163.179688 57.285156 L 163.179688 53.535156 L 168.191406 53.535156 C 168.335938 51.492188 168.898438 49.871094 169.761719 48.519531 C 170.878906 46.785156 172.4375 45.589844 174.195312 44.566406 C 176.253906 43.375 178.253906 42.65625 180.140625 41.976562 C 183.644531 40.714844 186.6875 39.621094 188.351562 35.230469 L 188.351562 25.90625 L 192.101562 25.90625 L 192.101562 35.175781 C 193.761719 39.617188 196.785156 40.714844 200.289062 41.984375 C 202.148438 42.65625 204.125 43.375 206.1875 44.566406 C 207.949219 45.589844 209.503906 46.785156 210.617188 48.519531 C 211.484375 49.871094 212.050781 51.492188 212.195312 53.535156 L 217.203125 53.535156 L 217.203125 57.285156 L 216.488281 57.285156 L 216.488281 84.179688 L 219.597656 84.179688 L 219.597656 98.71875 L 227.65625 98.71875 L 227.65625 112.828125 L 232.738281 112.828125 L 230.972656 115.6875 L 221.917969 130.351562 L 234.238281 266.574219 L 262.140625 266.574219 L 262.140625 270.324219 L 118.246094 270.324219 Z M 149.894531 266.574219 L 175.996094 266.574219 L 175.996094 234.628906 C 175.996094 230.707031 177.601562 227.140625 180.183594 224.558594 C 182.769531 221.972656 186.332031 220.371094 190.257812 220.371094 C 194.179688 220.371094 197.746094 221.972656 200.328125 224.558594 C 202.910156 227.140625 204.515625 230.707031 204.515625 234.628906 L 204.515625 266.574219 L 230.484375 266.574219 L 218.25 131.308594 L 162.132812 131.308594 Z M 215.847656 112.828125 L 215.847656 105.675781 L 219.597656 105.675781 L 219.597656 112.828125 L 223.902344 112.828125 L 223.902344 102.472656 L 156.480469 102.472656 L 156.480469 112.828125 L 160.785156 112.828125 L 160.785156 105.675781 L 164.539062 105.675781 L 164.539062 112.828125 Z M 208.433594 53.535156 C 208.3125 52.292969 207.96875 51.328125 207.46875 50.542969 C 206.738281 49.40625 205.613281 48.5625 204.308594 47.804688 C 202.53125 46.773438 200.722656 46.117188 199.015625 45.5 C 195.5625 44.25 192.484375 43.132812 190.230469 39.765625 C 187.972656 43.128906 184.871094 44.246094 181.402344 45.492188 C 179.6875 46.109375 177.871094 46.765625 176.074219 47.804688 C 174.769531 48.5625 173.644531 49.40625 172.914062 50.542969 C 172.414062 51.328125 172.070312 52.292969 171.949219 53.535156 Z M 212.738281 84.179688 L 212.738281 57.285156 L 210.746094 57.285156 L 210.746094 84.179688 Z M 206.992188 84.179688 L 206.992188 57.285156 L 200.175781 57.285156 L 200.175781 84.179688 Z M 196.421875 84.179688 L 196.421875 57.285156 L 183.960938 57.285156 L 183.960938 84.179688 Z M 180.207031 84.179688 L 180.207031 57.285156 L 172.996094 57.285156 L 172.996094 84.179688 Z M 169.246094 84.179688 L 169.246094 57.285156 L 167.84375 57.285156 L 167.84375 84.179688 Z M 164.539062 98.71875 L 215.847656 98.71875 L 215.847656 87.933594 L 164.539062 87.933594 Z M 179.75 266.574219 L 200.761719 266.574219 L 200.761719 234.628906 C 200.761719 231.742188 199.578125 229.117188 197.675781 227.210938 C 195.769531 225.304688 193.144531 224.125 190.257812 224.125 C 187.367188 224.125 184.738281 225.304688 182.835938 227.210938 C 180.933594 229.117188 179.75 231.742188 179.75 234.628906 L 179.75 266.574219 " fill-opacity="1" fill-rule="nonzero"/></g></svg>