<svg xmlns="http://www.w3.org/2000/svg" xmlns:xlink="http://www.w3.org/1999/xlink" width="500" zoomAndPan="magnify" viewBox="0 0 375 374.999991" height="500" preserveAspectRatio="xMidYMid meet" version="1.0"><defs><g/><clipPath id="7840117678"><rect x="0" width="243" y="0" height="39"/></clipPath><clipPath id="13f79074fe"><path d="M 156.367188 174.449219 L 225.757812 174.449219 L 225.757812 212.382812 L 156.367188 212.382812 Z M 156.367188 174.449219 " clip-rule="nonzero"/></clipPath><clipPath id="7d719c9304"><path d="M 0.367188 0.449219 L 69.757812 0.449219 L 69.757812 38.382812 L 0.367188 38.382812 Z M 0.367188 0.449219 " clip-rule="nonzero"/></clipPath><clipPath id="cfc5b72359"><rect x="0" width="70" y="0" height="39"/></clipPath><clipPath id="60276c42ff"><path d="M 156.367188 131.148438 L 224.230469 131.148438 L 224.230469 169.085938 L 156.367188 169.085938 Z M 156.367188 131.148438 " clip-rule="nonzero"/></clipPath><clipPath id="771701d0ec"><path d="M 0.367188 0.148438 L 68.230469 0.148438 L 68.230469 38.085938 L 0.367188 38.085938 Z M 0.367188 0.148438 " clip-rule="nonzero"/></clipPath><clipPath id="f5088f9fba"><rect x="0" width="69" y="0" height="39"/></clipPath><clipPath id="1a9ec20ff7"><path d="M 156.367188 159.167969 L 225.757812 159.167969 L 225.757812 197.101562 L 156.367188 197.101562 Z M 156.367188 159.167969 " clip-rule="nonzero"/></clipPath><clipPath id="9189f1023e"><path d="M 0.367188 0.167969 L 69.757812 0.167969 L 69.757812 38.101562 L 0.367188 38.101562 Z M 0.367188 0.167969 " clip-rule="nonzero"/></clipPath><clipPath id="913419cedd"><rect x="0" width="70" y="0" height="39"/></clipPath><clipPath id="a9a58362f4"><path d="M 86.941406 26.902344 L 294.691406 26.902344 L 294.691406 293.152344 L 86.941406 293.152344 Z M 86.941406 26.902344 " clip-rule="nonzero"/></clipPath></defs><g transform="matrix(1, 0, 0, 1, 73, 304)"><g clip-path="url(#7840117678)"><g fill="#000616" fill-opacity="1"><g transform="translate(1.953932, 30.653238)"><g><path d="M 2.90625 -21.640625 L 6.921875 -21.640625 L 6.921875 -3.40625 L 18.25 -3.40625 L 18.25 0 L 2.90625 0 Z M 2.90625 -21.640625 "/></g></g></g><g fill="#000616" fill-opacity="1"><g transform="translate(28.015082, 30.653238)"><g><path d="M 12.21875 0.3125 C 9.226562 0.3125 6.894531 -0.523438 5.21875 -2.203125 C 3.550781 -3.890625 2.71875 -6.300781 2.71875 -9.4375 L 2.71875 -21.640625 L 6.734375 -21.640625 L 6.734375 -9.578125 C 6.734375 -5.335938 8.570312 -3.21875 12.25 -3.21875 C 15.894531 -3.21875 17.71875 -5.335938 17.71875 -9.578125 L 17.71875 -21.640625 L 21.671875 -21.640625 L 21.671875 -9.4375 C 21.671875 -6.300781 20.84375 -3.890625 19.1875 -2.203125 C 17.53125 -0.523438 15.207031 0.3125 12.21875 0.3125 Z M 12.21875 0.3125 "/></g></g></g><g fill="#000616" fill-opacity="1"><g transform="translate(59.948902, 30.653238)"><g><path d="M 22.796875 0 L 22.765625 -14.34375 L 15.640625 -2.46875 L 13.859375 -2.46875 L 6.734375 -14.15625 L 6.734375 0 L 2.90625 0 L 2.90625 -21.640625 L 6.21875 -21.640625 L 14.8125 -7.296875 L 23.25 -21.640625 L 26.5625 -21.640625 L 26.59375 0 Z M 22.796875 0 "/></g></g></g><g fill="#000616" fill-opacity="1"><g transform="translate(97.013583, 30.653238)"><g><path d="M 19.140625 -3.375 L 19.140625 0 L 2.90625 0 L 2.90625 -21.640625 L 18.703125 -21.640625 L 18.703125 -18.28125 L 6.921875 -18.28125 L 6.921875 -12.640625 L 17.375 -12.640625 L 17.375 -9.34375 L 6.921875 -9.34375 L 6.921875 -3.375 Z M 19.140625 -3.375 "/></g></g></g><g fill="#000616" fill-opacity="1"><g transform="translate(125.26925, 30.653238)"><g><path d="M 1.703125 -10.203125 L 10.203125 -10.203125 L 10.203125 -6.984375 L 1.703125 -6.984375 Z M 1.703125 -10.203125 "/></g></g></g><g fill="#000616" fill-opacity="1"><g transform="translate(144.715923, 30.653238)"><g><path d="M 2.90625 -21.640625 L 12.375 -21.640625 C 14.675781 -21.640625 16.722656 -21.191406 18.515625 -20.296875 C 20.316406 -19.398438 21.710938 -18.128906 22.703125 -16.484375 C 23.691406 -14.847656 24.1875 -12.960938 24.1875 -10.828125 C 24.1875 -8.679688 23.691406 -6.785156 22.703125 -5.140625 C 21.710938 -3.503906 20.316406 -2.238281 18.515625 -1.34375 C 16.722656 -0.445312 14.675781 0 12.375 0 L 2.90625 0 Z M 12.1875 -3.40625 C 13.769531 -3.40625 15.164062 -3.707031 16.375 -4.3125 C 17.582031 -4.914062 18.507812 -5.78125 19.15625 -6.90625 C 19.800781 -8.03125 20.125 -9.335938 20.125 -10.828125 C 20.125 -12.304688 19.800781 -13.609375 19.15625 -14.734375 C 18.507812 -15.859375 17.582031 -16.722656 16.375 -17.328125 C 15.164062 -17.941406 13.769531 -18.25 12.1875 -18.25 L 6.921875 -18.25 L 6.921875 -3.40625 Z M 12.1875 -3.40625 "/></g></g></g><g fill="#000616" fill-opacity="1"><g transform="translate(177.793373, 30.653238)"><g><path d="M 18.25 -11.25 C 19.4375 -10.863281 20.378906 -10.210938 21.078125 -9.296875 C 21.785156 -8.378906 22.140625 -7.238281 22.140625 -5.875 C 22.140625 -4 21.414062 -2.550781 19.96875 -1.53125 C 18.53125 -0.507812 16.429688 0 13.671875 0 L 2.90625 0 L 2.90625 -21.640625 L 13.046875 -21.640625 C 15.609375 -21.640625 17.578125 -21.140625 18.953125 -20.140625 C 20.335938 -19.140625 21.03125 -17.765625 21.03125 -16.015625 C 21.03125 -14.941406 20.78125 -13.992188 20.28125 -13.171875 C 19.789062 -12.347656 19.113281 -11.707031 18.25 -11.25 Z M 6.921875 -18.484375 L 6.921875 -12.515625 L 12.609375 -12.515625 C 14.015625 -12.515625 15.09375 -12.765625 15.84375 -13.265625 C 16.59375 -13.773438 16.96875 -14.515625 16.96875 -15.484375 C 16.96875 -16.472656 16.59375 -17.21875 15.84375 -17.71875 C 15.09375 -18.226562 14.015625 -18.484375 12.609375 -18.484375 Z M 13.421875 -3.15625 C 16.535156 -3.15625 18.09375 -4.195312 18.09375 -6.28125 C 18.09375 -8.363281 16.535156 -9.40625 13.421875 -9.40625 L 6.921875 -9.40625 L 6.921875 -3.15625 Z M 13.421875 -3.15625 "/></g></g></g><g fill="#000616" fill-opacity="1"><g transform="translate(208.861753, 30.653238)"><g><path d="M 22.140625 -21.640625 L 22.140625 0 L 18.828125 0 L 6.890625 -14.65625 L 6.890625 0 L 2.90625 0 L 2.90625 -21.640625 L 6.21875 -21.640625 L 18.15625 -6.984375 L 18.15625 -21.640625 Z M 22.140625 -21.640625 "/></g></g></g></g></g><path stroke-linecap="butt" transform="matrix(0.64216, -0.387467, 0.387467, 0.64216, 103.445902, 221.0556)" fill="none" stroke-linejoin="miter" d="M 26.25117 3.501734 L 237.905218 3.497417 " stroke="#ffbd59" stroke-width="7" stroke-opacity="1" stroke-miterlimit="4"/><path stroke-linecap="round" transform="matrix(0.64216, -0.387467, 0.387467, 0.64216, 103.445902, 221.0556)" fill="none" stroke-linejoin="round" d="M 3.502533 3.498862 C 3.498172 -2.300857 8.201051 -7.00005 13.998079 -6.999952 C 19.799566 -6.997164 24.50145 -2.298743 24.501352 3.498284 C 24.498564 9.299771 19.800143 14.001655 13.998656 13.998867 C 8.201629 13.998769 3.499745 9.300348 3.502533 3.498862 " stroke="#ffbd59" stroke-width="7" stroke-opacity="1" stroke-miterlimit="4"/><path stroke-linecap="round" transform="matrix(0.64216, -0.387467, 0.387467, 0.64216, 103.445902, 221.0556)" fill="none" stroke-linejoin="round" d="M 260.653855 3.50029 C 260.653757 9.297317 255.955337 13.999201 250.158309 13.999103 C 244.354132 14.000774 239.654939 9.297894 239.655036 3.500867 C 239.655134 -2.296161 244.356245 -7.002504 250.157732 -6.999716 C 255.954759 -6.999618 260.653953 -2.296738 260.653855 3.50029 " stroke="#ffbd59" stroke-width="7" stroke-opacity="1" stroke-miterlimit="4"/><path stroke-linecap="butt" transform="matrix(0.645037, 0.382659, -0.382659, 0.645037, 107.260457, 121.083179)" fill="none" stroke-linejoin="miter" d="M 26.248698 3.50251 L 234.991905 3.498791 " stroke="#ffbd59" stroke-width="7" stroke-opacity="1" stroke-miterlimit="4"/><path stroke-linecap="round" transform="matrix(0.645037, 0.382659, -0.382659, 0.645037, 107.260457, 121.083179)" fill="none" stroke-linejoin="round" d="M 3.500752 3.498895 C 3.501977 -2.297288 8.203299 -6.99993 13.999481 -6.998705 C 19.800143 -7.000137 24.502785 -2.298815 24.497081 3.500025 C 24.498513 9.300687 19.801671 14.000671 14.001009 14.002103 C 8.197689 13.999056 3.502184 9.299557 3.500752 3.498895 " stroke="#ffbd59" stroke-width="7" stroke-opacity="1" stroke-miterlimit="4"/><path stroke-linecap="round" transform="matrix(0.645037, 0.382659, -0.382659, 0.645037, 107.260457, 121.083179)" fill="none" stroke-linejoin="round" d="M 257.74433 3.49975 C 257.743105 9.295932 253.041784 13.998575 247.241122 14.000007 C 241.444939 13.998781 236.742297 9.29746 236.743522 3.501277 C 236.74209 -2.299385 241.443412 -7.002027 247.239594 -7.000802 C 253.042914 -6.997754 257.742898 -2.300912 257.74433 3.49975 " stroke="#ffbd59" stroke-width="7" stroke-opacity="1" stroke-miterlimit="4"/><path stroke-linecap="butt" transform="matrix(0.75, 0.000000000000000188, -0.000000000000000188, 0.75, 104.802816, 169.094096)" fill="none" stroke-linejoin="miter" d="M 26.252497 3.499539 L 199.924383 3.499539 " stroke="#ffbd59" stroke-width="7" stroke-opacity="1" stroke-miterlimit="4"/><path stroke-linecap="round" transform="matrix(0.75, 0.000000000000000188, -0.000000000000000188, 0.75, 104.802816, 169.094096)" fill="none" stroke-linejoin="round" d="M 3.502496 3.499539 C 3.502496 -2.297337 8.200413 -7.000462 14.002496 -7.000462 C 19.799372 -7.000462 24.502497 -2.297337 24.502497 3.499539 C 24.502497 9.296414 19.799372 13.999539 14.002496 13.999539 C 8.200413 13.999539 3.502496 9.296414 3.502496 3.499539 " stroke="#ffbd59" stroke-width="7" stroke-opacity="1" stroke-miterlimit="4"/><path stroke-linecap="round" transform="matrix(0.75, 0.000000000000000188, -0.000000000000000188, 0.75, 104.802816, 169.094096)" fill="none" stroke-linejoin="round" d="M 222.674385 3.499539 C 222.674385 9.296414 217.97126 13.999539 212.174384 13.999539 C 206.372301 13.999539 201.674384 9.296414 201.674384 3.499539 C 201.674384 -2.297337 206.372301 -7.000462 212.174384 -7.000462 C 217.97126 -7.000462 222.674385 -2.297337 222.674385 3.499539 " stroke="#ffbd59" stroke-width="7" stroke-opacity="1" stroke-miterlimit="4"/><g clip-path="url(#13f79074fe)"><g transform="matrix(1, 0, 0, 1, 156, 174)"><g clip-path="url(#cfc5b72359)"><g clip-path="url(#7d719c9304)"><path fill="#ffffff" d="M 0.367188 0.449219 L 69.71875 0.449219 L 69.71875 38.382812 L 0.367188 38.382812 Z M 0.367188 0.449219 " fill-opacity="1" fill-rule="nonzero"/></g></g></g></g><g clip-path="url(#60276c42ff)"><g transform="matrix(1, 0, 0, 1, 156, 131)"><g clip-path="url(#f5088f9fba)"><g clip-path="url(#771701d0ec)"><path fill="#ffffff" d="M 0.367188 0.148438 L 68.234375 0.148438 L 68.234375 38.085938 L 0.367188 38.085938 Z M 0.367188 0.148438 " fill-opacity="1" fill-rule="nonzero"/></g></g></g></g><g clip-path="url(#1a9ec20ff7)"><g transform="matrix(1, 0, 0, 1, 156, 159)"><g clip-path="url(#913419cedd)"><g clip-path="url(#9189f1023e)"><path fill="#ffffff" d="M 0.367188 0.167969 L 69.71875 0.167969 L 69.71875 38.101562 L 0.367188 38.101562 Z M 0.367188 0.167969 " fill-opacity="1" fill-rule="nonzero"/></g></g></g></g><g clip-path="url(#a9a58362f4)"><path fill="#000616" d="M 161.765625 128.304688 L 219.890625 128.304688 L 226.664062 117.332031 L 154.992188 117.332031 Z M 132.875 289.449219 L 248.78125 289.449219 L 248.78125 293.199219 L 132.875 293.199219 Z M 87.128906 278.191406 L 294.902344 278.191406 L 294.714844 281.941406 L 86.941406 281.941406 Z M 190.894531 143.65625 C 192.808594 143.65625 194.554688 144.4375 195.816406 145.703125 C 197.078125 146.960938 197.863281 148.707031 197.863281 150.625 L 197.863281 166.414062 L 183.925781 166.414062 L 183.925781 150.625 C 183.925781 148.710938 184.707031 146.96875 185.96875 145.707031 L 185.976562 145.703125 C 187.238281 144.4375 188.980469 143.65625 190.894531 143.65625 Z M 190.894531 147.40625 C 190.007812 147.40625 189.199219 147.769531 188.617188 148.351562 C 188.035156 148.933594 187.675781 149.738281 187.675781 150.625 L 187.675781 162.660156 L 194.109375 162.660156 L 194.109375 150.625 C 194.109375 149.742188 193.746094 148.9375 193.160156 148.355469 C 192.582031 147.769531 191.773438 147.40625 190.894531 147.40625 Z M 118.882812 267.324219 L 146.78125 267.324219 L 159.101562 131.101562 L 150.046875 116.4375 L 148.285156 113.578125 L 153.363281 113.578125 L 153.363281 99.46875 L 161.421875 99.46875 L 161.421875 84.929688 L 164.730469 84.929688 L 164.730469 58.035156 L 163.816406 58.035156 L 163.816406 54.285156 L 168.828125 54.285156 C 168.972656 52.242188 169.535156 50.621094 170.398438 49.269531 C 171.515625 47.535156 173.074219 46.339844 174.832031 45.316406 C 176.890625 44.125 178.890625 43.40625 180.777344 42.726562 C 184.28125 41.464844 187.324219 40.371094 188.988281 35.980469 L 188.988281 26.65625 L 192.738281 26.65625 L 192.738281 35.925781 C 194.398438 40.367188 197.421875 41.464844 200.925781 42.734375 C 202.785156 43.40625 204.761719 44.125 206.824219 45.316406 C 208.585938 46.339844 210.140625 47.535156 211.253906 49.269531 C 212.121094 50.621094 212.6875 52.242188 212.832031 54.285156 L 217.839844 54.285156 L 217.839844 58.035156 L 217.125 58.035156 L 217.125 84.929688 L 220.234375 84.929688 L 220.234375 99.46875 L 228.292969 99.46875 L 228.292969 113.578125 L 233.375 113.578125 L 231.609375 116.4375 L 222.554688 131.101562 L 234.875 267.324219 L 262.777344 267.324219 L 262.777344 271.074219 L 118.882812 271.074219 Z M 150.53125 267.324219 L 176.632812 267.324219 L 176.632812 235.378906 C 176.632812 231.457031 178.238281 227.890625 180.820312 225.308594 C 183.40625 222.722656 186.96875 221.121094 190.894531 221.121094 C 194.816406 221.121094 198.382812 222.722656 200.964844 225.308594 C 203.546875 227.890625 205.152344 231.457031 205.152344 235.378906 L 205.152344 267.324219 L 231.121094 267.324219 L 218.886719 132.058594 L 162.769531 132.058594 Z M 216.484375 113.578125 L 216.484375 106.425781 L 220.234375 106.425781 L 220.234375 113.578125 L 224.539062 113.578125 L 224.539062 103.222656 L 157.117188 103.222656 L 157.117188 113.578125 L 161.421875 113.578125 L 161.421875 106.425781 L 165.175781 106.425781 L 165.175781 113.578125 Z M 209.070312 54.285156 C 208.949219 53.042969 208.605469 52.078125 208.105469 51.292969 C 207.371094 50.15625 206.25 49.3125 204.945312 48.554688 C 203.167969 47.523438 201.359375 46.867188 199.652344 46.25 C 196.195312 45 193.121094 43.882812 190.867188 40.515625 C 188.609375 43.878906 185.507812 44.996094 182.039062 46.242188 C 180.324219 46.859375 178.507812 47.515625 176.710938 48.554688 C 175.40625 49.3125 174.28125 50.15625 173.550781 51.292969 C 173.050781 52.078125 172.707031 53.042969 172.585938 54.285156 Z M 213.375 84.929688 L 213.375 58.035156 L 211.382812 58.035156 L 211.382812 84.929688 Z M 207.628906 84.929688 L 207.628906 58.035156 L 200.8125 58.035156 L 200.8125 84.929688 Z M 197.058594 84.929688 L 197.058594 58.035156 L 184.597656 58.035156 L 184.597656 84.929688 Z M 180.84375 84.929688 L 180.84375 58.035156 L 173.632812 58.035156 L 173.632812 84.929688 Z M 169.882812 84.929688 L 169.882812 58.035156 L 168.480469 58.035156 L 168.480469 84.929688 Z M 165.175781 99.46875 L 216.484375 99.46875 L 216.484375 88.683594 L 165.175781 88.683594 Z M 180.386719 267.324219 L 201.398438 267.324219 L 201.398438 235.378906 C 201.398438 232.492188 200.214844 229.867188 198.3125 227.960938 C 196.40625 226.054688 193.78125 224.875 190.894531 224.875 C 188.003906 224.875 185.375 226.054688 183.472656 227.960938 C 181.570312 229.867188 180.386719 232.492188 180.386719 235.378906 L 180.386719 267.324219 " fill-opacity="1" fill-rule="nonzero"/></g></svg>