<svg xmlns="http://www.w3.org/2000/svg" xmlns:xlink="http://www.w3.org/1999/xlink" width="500" zoomAndPan="magnify" viewBox="0 0 375 374.999991" height="500" preserveAspectRatio="xMidYMid meet" version="1.0"><defs><g/><clipPath id="68259c4db6"><path d="M 0.960938 317 L 274.558594 317 L 274.558594 361.199219 L 0.960938 361.199219 Z M 0.960938 317 " clip-rule="nonzero"/></clipPath><clipPath id="f385e17cf2"><rect x="0" width="275" y="0" height="45"/></clipPath><clipPath id="a59d945ecb"><path d="M 94.296875 170.523438 L 172.992188 170.523438 L 172.992188 213.546875 L 94.296875 213.546875 Z M 94.296875 170.523438 " clip-rule="nonzero"/></clipPath><clipPath id="62ca4f1ffc"><path d="M 0.296875 0.523438 L 78.992188 0.523438 L 78.992188 43.546875 L 0.296875 43.546875 Z M 0.296875 0.523438 " clip-rule="nonzero"/></clipPath><clipPath id="7b1c00fba5"><rect x="0" width="79" y="0" height="44"/></clipPath><clipPath id="f56676bc84"><path d="M 94.296875 121.421875 L 171.257812 121.421875 L 171.257812 164.445312 L 94.296875 164.445312 Z M 94.296875 121.421875 " clip-rule="nonzero"/></clipPath><clipPath id="dfe8fe6e28"><path d="M 0.296875 0.421875 L 77.257812 0.421875 L 77.257812 43.445312 L 0.296875 43.445312 Z M 0.296875 0.421875 " clip-rule="nonzero"/></clipPath><clipPath id="f7bf9ceb8e"><rect x="0" width="78" y="0" height="44"/></clipPath><clipPath id="bab3463e97"><path d="M 94.296875 153.195312 L 172.992188 153.195312 L 172.992188 196.21875 L 94.296875 196.21875 Z M 94.296875 153.195312 " clip-rule="nonzero"/></clipPath><clipPath id="5d42ccc57e"><path d="M 0.296875 0.195312 L 78.992188 0.195312 L 78.992188 43.21875 L 0.296875 43.21875 Z M 0.296875 0.195312 " clip-rule="nonzero"/></clipPath><clipPath id="7e11ca48e8"><rect x="0" width="79" y="0" height="44"/></clipPath><clipPath id="44c7e93867"><path d="M 14.84375 2.351562 L 250.445312 2.351562 L 250.445312 304.292969 L 14.84375 304.292969 Z M 14.84375 2.351562 " clip-rule="nonzero"/></clipPath><clipPath id="dd30504fd0"><rect x="0" width="275" y="0" height="362"/></clipPath></defs><rect x="-37.5" width="450" fill="#ffffff" y="-37.499999" height="449.999989" fill-opacity="1"/><g transform="matrix(1, 0, 0, 1, 54, 6)"><g clip-path="url(#dd30504fd0)"><g clip-path="url(#68259c4db6)"><g transform="matrix(1, 0, 0, 1, 0, 317)"><g clip-path="url(#f385e17cf2)"><g fill="#000616" fill-opacity="1"><g transform="translate(1.971, 35.207671)"><g><path d="M 3.296875 -24.546875 L 7.859375 -24.546875 L 7.859375 -3.859375 L 20.6875 -3.859375 L 20.6875 0 L 3.296875 0 Z M 3.296875 -24.546875 "/></g></g></g><g fill="#000616" fill-opacity="1"><g transform="translate(31.525853, 35.207671)"><g><path d="M 13.84375 0.34375 C 10.457031 0.34375 7.816406 -0.601562 5.921875 -2.5 C 4.023438 -4.40625 3.078125 -7.132812 3.078125 -10.6875 L 3.078125 -24.546875 L 7.640625 -24.546875 L 7.640625 -10.875 C 7.640625 -6.050781 9.722656 -3.640625 13.890625 -3.640625 C 18.023438 -3.640625 20.09375 -6.050781 20.09375 -10.875 L 20.09375 -24.546875 L 24.578125 -24.546875 L 24.578125 -10.6875 C 24.578125 -7.132812 23.632812 -4.40625 21.75 -2.5 C 19.875 -0.601562 17.238281 0.34375 13.84375 0.34375 Z M 13.84375 0.34375 "/></g></g></g><g fill="#000616" fill-opacity="1"><g transform="translate(67.740652, 35.207671)"><g><path d="M 25.84375 0 L 25.8125 -16.265625 L 17.734375 -2.8125 L 15.703125 -2.8125 L 7.640625 -16.0625 L 7.640625 0 L 3.296875 0 L 3.296875 -24.546875 L 7.046875 -24.546875 L 16.796875 -8.28125 L 26.359375 -24.546875 L 30.125 -24.546875 L 30.15625 0 Z M 25.84375 0 "/></g></g></g><g fill="#000616" fill-opacity="1"><g transform="translate(109.774145, 35.207671)"><g><path d="M 21.703125 -3.828125 L 21.703125 0 L 3.296875 0 L 3.296875 -24.546875 L 21.21875 -24.546875 L 21.21875 -20.71875 L 7.859375 -20.71875 L 7.859375 -14.34375 L 19.703125 -14.34375 L 19.703125 -10.59375 L 7.859375 -10.59375 L 7.859375 -3.828125 Z M 21.703125 -3.828125 "/></g></g></g><g fill="#000616" fill-opacity="1"><g transform="translate(141.817706, 35.207671)"><g><path d="M 1.921875 -11.578125 L 11.578125 -11.578125 L 11.578125 -7.921875 L 1.921875 -7.921875 Z M 1.921875 -11.578125 "/></g></g></g><g fill="#000616" fill-opacity="1"><g transform="translate(163.87136, 35.207671)"><g><path d="M 3.296875 -24.546875 L 14.03125 -24.546875 C 16.644531 -24.546875 18.96875 -24.035156 21 -23.015625 C 23.03125 -22.003906 24.609375 -20.566406 25.734375 -18.703125 C 26.859375 -16.847656 27.421875 -14.703125 27.421875 -12.265625 C 27.421875 -9.835938 26.859375 -7.691406 25.734375 -5.828125 C 24.609375 -3.972656 23.03125 -2.535156 21 -1.515625 C 18.96875 -0.503906 16.644531 0 14.03125 0 L 3.296875 0 Z M 13.8125 -3.859375 C 15.613281 -3.859375 17.195312 -4.203125 18.5625 -4.890625 C 19.925781 -5.578125 20.976562 -6.554688 21.71875 -7.828125 C 22.457031 -9.109375 22.828125 -10.585938 22.828125 -12.265625 C 22.828125 -13.953125 22.457031 -15.429688 21.71875 -16.703125 C 20.976562 -17.984375 19.925781 -18.96875 18.5625 -19.65625 C 17.195312 -20.34375 15.613281 -20.6875 13.8125 -20.6875 L 7.859375 -20.6875 L 7.859375 -3.859375 Z M 13.8125 -3.859375 "/></g></g></g><g fill="#000616" fill-opacity="1"><g transform="translate(201.383102, 35.207671)"><g><path d="M 20.6875 -12.765625 C 22.039062 -12.316406 23.113281 -11.570312 23.90625 -10.53125 C 24.707031 -9.488281 25.109375 -8.195312 25.109375 -6.65625 C 25.109375 -4.53125 24.289062 -2.890625 22.65625 -1.734375 C 21.019531 -0.578125 18.632812 0 15.5 0 L 3.296875 0 L 3.296875 -24.546875 L 14.796875 -24.546875 C 17.691406 -24.546875 19.921875 -23.976562 21.484375 -22.84375 C 23.054688 -21.707031 23.84375 -20.144531 23.84375 -18.15625 C 23.84375 -16.945312 23.5625 -15.875 23 -14.9375 C 22.4375 -14 21.664062 -13.273438 20.6875 -12.765625 Z M 7.859375 -20.96875 L 7.859375 -14.203125 L 14.3125 -14.203125 C 15.894531 -14.203125 17.113281 -14.488281 17.96875 -15.0625 C 18.820312 -15.632812 19.25 -16.46875 19.25 -17.5625 C 19.25 -18.6875 18.820312 -19.535156 17.96875 -20.109375 C 17.113281 -20.679688 15.894531 -20.96875 14.3125 -20.96875 Z M 15.21875 -3.578125 C 18.75 -3.578125 20.515625 -4.757812 20.515625 -7.125 C 20.515625 -9.476562 18.75 -10.65625 15.21875 -10.65625 L 7.859375 -10.65625 L 7.859375 -3.578125 Z M 15.21875 -3.578125 "/></g></g></g><g fill="#000616" fill-opacity="1"><g transform="translate(236.616443, 35.207671)"><g><path d="M 25.109375 -24.546875 L 25.109375 0 L 21.359375 0 L 7.8125 -16.625 L 7.8125 0 L 3.296875 0 L 3.296875 -24.546875 L 7.046875 -24.546875 L 20.578125 -7.921875 L 20.578125 -24.546875 Z M 25.109375 -24.546875 "/></g></g></g></g></g></g><path stroke-linecap="butt" transform="matrix(0.728246, -0.43941, 0.43941, 0.728246, 34.282528, 223.381435)" fill="none" stroke-linejoin="miter" d="M 26.251335 3.499081 L 237.906417 3.498301 " stroke="#ffbd59" stroke-width="7" stroke-opacity="1" stroke-miterlimit="4"/><path stroke-linecap="round" transform="matrix(0.728246, -0.43941, 0.43941, 0.728246, 34.282528, 223.381435)" fill="none" stroke-linejoin="round" d="M 3.502836 3.499325 C 3.499905 -2.300832 8.20194 -7.000011 13.999725 -6.99901 C 19.799883 -7.001941 24.499062 -2.299906 24.501993 3.500252 C 24.500991 9.298037 19.796583 14.001148 13.998798 14.000147 C 8.201013 13.999146 3.499462 9.301042 3.502836 3.499325 " stroke="#ffbd59" stroke-width="7" stroke-opacity="1" stroke-miterlimit="4"/><path stroke-linecap="round" transform="matrix(0.728246, -0.43941, 0.43941, 0.728246, 34.282528, 223.381435)" fill="none" stroke-linejoin="round" d="M 260.654916 3.498056 C 260.657847 9.298214 255.953439 14.001325 250.155654 14.000324 C 244.357869 13.999322 239.656317 9.301219 239.653386 3.501062 C 239.65676 -2.300656 244.358795 -6.999835 250.15658 -6.998833 C 255.954365 -6.997832 260.655917 -2.299729 260.654916 3.498056 " stroke="#ffbd59" stroke-width="7" stroke-opacity="1" stroke-miterlimit="4"/><path stroke-linecap="butt" transform="matrix(0.731509, 0.433957, -0.433957, 0.731509, 38.608475, 110.00693)" fill="none" stroke-linejoin="miter" d="M 26.25032 3.497688 L 234.991526 3.499347 " stroke="#ffbd59" stroke-width="7" stroke-opacity="1" stroke-miterlimit="4"/><path stroke-linecap="round" transform="matrix(0.731509, 0.433957, -0.433957, 0.731509, 38.608475, 110.00693)" fill="none" stroke-linejoin="round" d="M 3.498441 3.500756 C 3.501388 -2.300221 8.200282 -6.999489 13.998917 -7.000492 C 19.797551 -7.001494 24.499162 -2.298651 24.500165 3.499984 C 24.501168 9.298618 19.798324 14.000229 13.999689 14.001232 C 8.201055 14.002235 3.499444 9.299391 3.498441 3.500756 " stroke="#ffbd59" stroke-width="7" stroke-opacity="1" stroke-miterlimit="4"/><path stroke-linecap="round" transform="matrix(0.731509, 0.433957, -0.433957, 0.731509, 38.608475, 110.00693)" fill="none" stroke-linejoin="round" d="M 257.741798 3.502572 C 257.7428 9.301206 253.043907 14.000474 247.242929 13.997527 C 241.444294 13.998529 236.745027 9.299636 236.744024 3.501001 C 236.743021 -2.297633 241.445865 -6.999244 247.244499 -7.000247 C 253.043134 -7.00125 257.744745 -2.298406 257.741798 3.502572 " stroke="#ffbd59" stroke-width="7" stroke-opacity="1" stroke-miterlimit="4"/><path stroke-linecap="butt" transform="matrix(0.850543, 0.000000000000000214, -0.000000000000000214, 0.850543, 35.821361, 164.454085)" fill="none" stroke-linejoin="miter" d="M 26.250369 3.498473 L 199.921524 3.498473 " stroke="#ffbd59" stroke-width="7" stroke-opacity="1" stroke-miterlimit="4"/><path stroke-linecap="round" transform="matrix(0.850543, 0.000000000000000214, -0.000000000000000214, 0.850543, 35.821361, 164.454085)" fill="none" stroke-linejoin="round" d="M 3.498369 3.498473 C 3.498369 -2.297455 8.201245 -7.000331 14.001765 -7.000331 C 19.797692 -7.000331 24.500569 -2.297455 24.500569 3.498473 C 24.500569 9.298993 19.797692 14.001869 14.001765 14.001869 C 8.201245 14.001869 3.498369 9.298993 3.498369 3.498473 " stroke="#ffbd59" stroke-width="7" stroke-opacity="1" stroke-miterlimit="4"/><path stroke-linecap="round" transform="matrix(0.850543, 0.000000000000000214, -0.000000000000000214, 0.850543, 35.821361, 164.454085)" fill="none" stroke-linejoin="round" d="M 222.673525 3.498473 C 222.673525 9.298993 217.970649 14.001869 212.174721 14.001869 C 206.374201 14.001869 201.671325 9.298993 201.671325 3.498473 C 201.671325 -2.297455 206.374201 -7.000331 212.174721 -7.000331 C 217.970649 -7.000331 222.673525 -2.297455 222.673525 3.498473 " stroke="#ffbd59" stroke-width="7" stroke-opacity="1" stroke-miterlimit="4"/><g clip-path="url(#a59d945ecb)"><g transform="matrix(1, 0, 0, 1, 94, 170)"><g clip-path="url(#7b1c00fba5)"><g clip-path="url(#62ca4f1ffc)"><path fill="#ffffff" d="M 0.296875 0.523438 L 78.945312 0.523438 L 78.945312 43.546875 L 0.296875 43.546875 Z M 0.296875 0.523438 " fill-opacity="1" fill-rule="nonzero"/></g></g></g></g><g clip-path="url(#f56676bc84)"><g transform="matrix(1, 0, 0, 1, 94, 121)"><g clip-path="url(#f7bf9ceb8e)"><g clip-path="url(#dfe8fe6e28)"><path fill="#ffffff" d="M 0.296875 0.421875 L 77.265625 0.421875 L 77.265625 43.445312 L 0.296875 43.445312 Z M 0.296875 0.421875 " fill-opacity="1" fill-rule="nonzero"/></g></g></g></g><g clip-path="url(#bab3463e97)"><g transform="matrix(1, 0, 0, 1, 94, 153)"><g clip-path="url(#7e11ca48e8)"><g clip-path="url(#5d42ccc57e)"><path fill="#ffffff" d="M 0.296875 0.195312 L 78.945312 0.195312 L 78.945312 43.21875 L 0.296875 43.21875 Z M 0.296875 0.195312 " fill-opacity="1" fill-rule="nonzero"/></g></g></g></g><g clip-path="url(#44c7e93867)"><path fill="#000616" d="M 99.699219 117.347656 L 165.613281 117.347656 L 173.296875 104.902344 L 92.019531 104.902344 Z M 66.933594 300.089844 L 198.378906 300.089844 L 198.378906 304.347656 L 66.933594 304.347656 Z M 15.058594 287.324219 L 250.683594 287.324219 L 250.46875 291.578125 L 14.84375 291.578125 Z M 132.730469 134.753906 C 134.90625 134.753906 136.882812 135.640625 138.316406 137.074219 C 139.746094 138.503906 140.632812 140.480469 140.632812 142.65625 L 140.632812 160.5625 L 124.828125 160.5625 L 124.828125 142.65625 C 124.828125 140.484375 125.714844 138.511719 127.144531 137.082031 L 127.152344 137.074219 C 128.585938 135.640625 130.558594 134.753906 132.730469 134.753906 Z M 132.730469 139.007812 C 131.726562 139.007812 130.8125 139.421875 130.148438 140.078125 C 129.492188 140.742188 129.082031 141.652344 129.082031 142.65625 L 129.082031 156.308594 L 136.378906 156.308594 L 136.378906 142.65625 C 136.378906 141.65625 135.96875 140.746094 135.304688 140.082031 C 134.644531 139.421875 133.730469 139.007812 132.730469 139.007812 Z M 51.066406 275.003906 L 82.703125 275.003906 L 96.675781 120.515625 L 86.410156 103.886719 L 84.410156 100.644531 L 90.167969 100.644531 L 90.167969 84.644531 L 99.308594 84.644531 L 99.308594 68.15625 L 103.058594 68.15625 L 103.058594 37.660156 L 102.027344 37.660156 L 102.027344 33.402344 L 107.707031 33.402344 C 107.871094 31.085938 108.511719 29.246094 109.492188 27.714844 C 110.753906 25.746094 112.523438 24.394531 114.519531 23.230469 C 116.851562 21.882812 119.117188 21.066406 121.257812 20.292969 C 125.234375 18.863281 128.683594 17.625 130.570312 12.648438 L 130.570312 2.070312 L 134.824219 2.070312 L 134.824219 12.582031 C 136.707031 17.621094 140.132812 18.863281 144.109375 20.300781 C 146.21875 21.066406 148.457031 21.878906 150.796875 23.230469 C 152.796875 24.394531 154.558594 25.746094 155.824219 27.714844 C 156.804688 29.246094 157.445312 31.085938 157.609375 33.402344 L 163.289062 33.402344 L 163.289062 37.660156 L 162.476562 37.660156 L 162.476562 68.15625 L 166.003906 68.15625 L 166.003906 84.644531 L 175.144531 84.644531 L 175.144531 100.644531 L 180.90625 100.644531 L 178.902344 103.886719 L 168.636719 120.515625 L 182.609375 275.003906 L 214.253906 275.003906 L 214.253906 279.253906 L 51.066406 279.253906 Z M 86.960938 275.003906 L 116.558594 275.003906 L 116.558594 238.773438 C 116.558594 234.324219 118.378906 230.28125 121.308594 227.351562 C 124.238281 224.421875 128.28125 222.605469 132.730469 222.605469 C 137.179688 222.605469 141.222656 224.421875 144.152344 227.351562 C 147.082031 230.28125 148.902344 234.324219 148.902344 238.773438 L 148.902344 275.003906 L 178.355469 275.003906 L 164.476562 121.601562 L 100.835938 121.601562 Z M 161.753906 100.644531 L 161.753906 92.535156 L 166.003906 92.535156 L 166.003906 100.644531 L 170.890625 100.644531 L 170.890625 88.902344 L 94.425781 88.902344 L 94.425781 100.644531 L 99.308594 100.644531 L 99.308594 92.535156 L 103.5625 92.535156 L 103.5625 100.644531 Z M 153.347656 33.402344 C 153.207031 31.996094 152.820312 30.898438 152.25 30.011719 C 151.421875 28.71875 150.144531 27.761719 148.667969 26.90625 C 146.652344 25.734375 144.597656 24.992188 142.664062 24.289062 C 138.746094 22.875 135.257812 21.609375 132.703125 17.785156 C 130.140625 21.601562 126.621094 22.867188 122.6875 24.28125 C 120.746094 24.984375 118.683594 25.722656 116.644531 26.90625 C 115.167969 27.761719 113.894531 28.71875 113.0625 30.011719 C 112.5 30.898438 112.105469 31.996094 111.96875 33.402344 Z M 158.226562 68.15625 L 158.226562 37.660156 L 155.964844 37.660156 L 155.964844 68.15625 Z M 151.710938 68.15625 L 151.710938 37.660156 L 143.976562 37.660156 L 143.976562 68.15625 Z M 139.722656 68.15625 L 139.722656 37.660156 L 125.589844 37.660156 L 125.589844 68.15625 Z M 121.335938 68.15625 L 121.335938 37.660156 L 113.15625 37.660156 L 113.15625 68.15625 Z M 108.90625 68.15625 L 108.90625 37.660156 L 107.3125 37.660156 L 107.3125 68.15625 Z M 103.5625 84.644531 L 161.753906 84.644531 L 161.753906 72.414062 L 103.5625 72.414062 Z M 120.816406 275.003906 L 144.644531 275.003906 L 144.644531 238.773438 C 144.644531 235.5 143.304688 232.523438 141.144531 230.359375 C 138.980469 228.203125 136.003906 226.859375 132.730469 226.859375 C 129.457031 226.859375 126.476562 228.203125 124.316406 230.359375 C 122.15625 232.523438 120.816406 235.5 120.816406 238.773438 L 120.816406 275.003906 " fill-opacity="1" fill-rule="nonzero"/></g></g></g></svg>